<svg xmlns="http://www.w3.org/2000/svg" width="44" height="44" viewBox="0 0 44 44">
  <defs>
    <linearGradient id="mark-gradient" x1="0.193" y1="0.087" x2="0.667" y2="0.943" gradientUnits="objectBoundingBox">
      <stop offset="0" stop-color="#77b243"/>
      <stop offset="1" stop-color="#00b3ba"/>
    </linearGradient>
  </defs>
  <path d="M15.567,43.6l-2.961-2.96a2.861,2.861,0,0,1,0-4.053l2.961-2.963a4.3,4.3,0,0,0,0-6.416l-2.961-2.959a2.851,2.851,0,0,1-.842-2.029h0a2.851,2.851,0,0,1,.842-2.027l2.961-2.959a4.3,4.3,0,0,0,0-6.417L12.607,7.855a2.862,2.862,0,0,1,0-4.054L15.567.841a2.864,2.864,0,0,1,4.055,0L22.578,3.8a2.858,2.858,0,0,1,0,4.054l-2.956,2.959a4.3,4.3,0,0,0,0,6.417l2.956,2.959a2.847,2.847,0,0,1,.843,2.027h0a2.847,2.847,0,0,1-.843,2.029l-2.956,2.959a4.3,4.3,0,0,0,0,6.416l2.956,2.96a2.861,2.861,0,0,1,0,4.056L19.622,43.6a2.87,2.87,0,0,1-4.055,0Zm11.763-8.2-2.958-2.959a2.869,2.869,0,0,1,0-4.057l2.958-2.959a4.3,4.3,0,0,0,0-6.415l-2.958-2.961a2.866,2.866,0,0,1,0-4.055l2.958-2.959a2.863,2.863,0,0,1,4.054,0L34.343,12a2.854,2.854,0,0,1,0,4.055l-2.959,2.961a4.3,4.3,0,0,0,0,6.415l2.959,2.959a2.862,2.862,0,0,1,0,4.057L31.385,35.4a2.869,2.869,0,0,1-4.054,0ZM3.8,35.4.84,32.444a2.87,2.87,0,0,1,0-4.057L3.8,25.427a4.3,4.3,0,0,0,0-6.415L.84,16.051A2.868,2.868,0,0,1,.84,12L3.8,9.037a2.863,2.863,0,0,1,4.054,0L10.814,12a2.87,2.87,0,0,1,0,4.055L7.853,19.012a4.3,4.3,0,0,0,0,6.415l2.961,2.959a2.872,2.872,0,0,1,0,4.057L7.855,35.4a2.871,2.871,0,0,1-4.056,0Z" fill="url(#mark-gradient)"/>
</svg>
